<svg class="border shadow-md" viewBox="0 0 961.84 480.92" xmlns="http://www.w3.org/2000/svg" preserveAspectRatio="none" style="width: 961.84px; height: 480.92px;"><rect class="bg" id="bg" x="0" y="0" width="961.84" height="480.92" fill="#ffffff"/><path d="M 0 -53.43555555555556 L 0 -53.44&#10;                L 64.12 -26.72&#10;                L 192.368 -53.44 L 192.368 -53.44&#10;                L 256.49 -26.72&#10;                L 384.736 -53.44 L 384.736 -53.44&#10;                L 504.74 -26.72&#10;                L 577.104 -53.44 L 577.104 -53.44&#10;                L 641.23 -20.44&#10;                L 769.472 -53.44 L 769.472 -53.44&#10;                L 833.59 -15.44&#10;                L 961.8399999999999 -53.44 L 961.8399999999999 -53.44&#10;                L 1077.84 -24.44&#10;                L 1154.2079999999999 -53.44  V 480.92 H 0 V -53.44 Z" fill="#5357D5"/><path d="M 0 0 L 0 0.00&#10;                L 74.00 26.72&#10;                L 192.368 0.00 L 192.368 0.00&#10;                L 256.49 30.00&#10;                L 384.736 0.00 L 384.736 0.00&#10;                L 448.86 45.00&#10;                L 577.104 0.00 L 577.104 0.00&#10;                L 641.23 26.72&#10;                L 769.472 0.00 L 769.472 0.00&#10;                L 884.47 26.72&#10;                L 961.8399999999999 0.00 L 961.8399999999999 0.00&#10;                L 1034.84 26.72&#10;                L 1154.2079999999999 0.00  V 480.92 H 0 V 0.00 Z" fill="#5a60d8"/><path d="M 0 53.43555555555556 L 0 53.44&#10;                L 64.12 86.44&#10;                L 192.368 53.44 L 192.368 53.44&#10;                L 302.37 83.44&#10;                L 384.736 53.44 L 384.736 53.44&#10;                L 448.86 80.15&#10;                L 577.104 53.44 L 577.104 53.44&#10;                L 641.23 98.44&#10;                L 769.472 53.44 L 769.472 53.44&#10;                L 903.47 80.15&#10;                L 961.8399999999999 53.44 L 961.8399999999999 53.44&#10;                L 1092.84 80.15&#10;                L 1154.2079999999999 53.44  V 480.92 H 0 V 53.44 Z" fill="#6169db"/><path d="M 0 106.87111111111112 L 0 106.87&#10;                L 64.12 148.87&#10;                L 192.368 106.87 L 192.368 106.87&#10;                L 315.37 133.59&#10;                L 384.736 106.87 L 384.736 106.87&#10;                L 448.86 134.87&#10;                L 577.104 106.87 L 577.104 106.87&#10;                L 641.23 141.87&#10;                L 769.472 106.87 L 769.472 106.87&#10;                L 882.47 147.87&#10;                L 961.8399999999999 106.87 L 961.8399999999999 106.87&#10;                L 1047.84 156.87&#10;                L 1154.2079999999999 106.87  V 480.92 H 0 V 106.87 Z" fill="#6872de"/><path d="M 0 160.30666666666667 L 0 160.31&#10;                L 64.12 187.02&#10;                L 192.368 160.31 L 192.368 160.31&#10;                L 260.37 187.02&#10;                L 384.736 160.31 L 384.736 160.31&#10;                L 504.74 200.31&#10;                L 577.104 160.31 L 577.104 160.31&#10;                L 669.10 206.31&#10;                L 769.472 160.31 L 769.472 160.31&#10;                L 890.47 197.31&#10;                L 961.8399999999999 160.31 L 961.8399999999999 160.31&#10;                L 1092.84 187.02&#10;                L 1154.2079999999999 160.31  V 480.92 H 0 V 160.31 Z" fill="#6f7be1"/><path d="M 0 213.74222222222224 L 0 213.74&#10;                L 99.00 248.74&#10;                L 192.368 213.74 L 192.368 213.74&#10;                L 268.37 240.46&#10;                L 384.736 213.74 L 384.736 213.74&#10;                L 448.86 242.74&#10;                L 577.104 213.74 L 577.104 213.74&#10;                L 641.23 240.46&#10;                L 769.472 213.74 L 769.472 213.74&#10;                L 865.47 240.46&#10;                L 961.8399999999999 213.74 L 961.8399999999999 213.74&#10;                L 1025.96 240.46&#10;                L 1154.2079999999999 213.74  V 480.92 H 0 V 213.74 Z" fill="#7684e4"/><path d="M 0 267.1777777777778 L 0 267.18&#10;                L 90.00 297.18&#10;                L 192.368 267.18 L 192.368 267.18&#10;                L 256.49 303.18&#10;                L 384.736 267.18 L 384.736 267.18&#10;                L 448.86 320.18&#10;                L 577.104 267.18 L 577.104 267.18&#10;                L 641.23 293.90&#10;                L 769.472 267.18 L 769.472 267.18&#10;                L 854.47 313.18&#10;                L 961.8399999999999 267.18 L 961.8399999999999 267.18&#10;                L 1099.84 293.90&#10;                L 1154.2079999999999 267.18  V 480.92 H 0 V 267.18 Z" fill="#7d8de7"/><path d="M 0 320.61333333333334 L 0 320.61&#10;                L 137.00 347.33&#10;                L 192.368 320.61 L 192.368 320.61&#10;                L 256.49 347.33&#10;                L 384.736 320.61 L 384.736 320.61&#10;                L 458.74 372.61&#10;                L 577.104 320.61 L 577.104 320.61&#10;                L 697.10 347.33&#10;                L 769.472 320.61 L 769.472 320.61&#10;                L 833.59 347.33&#10;                L 961.8399999999999 320.61 L 961.8399999999999 320.61&#10;                L 1025.96 347.33&#10;                L 1154.2079999999999 320.61  V 480.92 H 0 V 320.61 Z" fill="#8496ea"/><path d="M 0 374.04888888888894 L 0 374.05&#10;                L 78.00 408.05&#10;                L 192.368 374.05 L 192.368 374.05&#10;                L 330.37 415.05&#10;                L 384.736 374.05 L 384.736 374.05&#10;                L 448.86 400.77&#10;                L 577.104 374.05 L 577.104 374.05&#10;                L 642.10 400.77&#10;                L 769.472 374.05 L 769.472 374.05&#10;                L 882.47 425.05&#10;                L 961.8399999999999 374.05 L 961.8399999999999 374.05&#10;                L 1025.96 412.05&#10;                L 1154.2079999999999 374.05  V 480.92 H 0 V 374.05 Z" fill="#8b9fed"/><path d="M 0 427.4844444444445 L 0 427.48&#10;                L 64.12 454.20&#10;                L 192.368 427.48 L 192.368 427.48&#10;                L 267.37 463.48&#10;                L 384.736 427.48 L 384.736 427.48&#10;                L 481.74 461.48&#10;                L 577.104 427.48 L 577.104 427.48&#10;                L 641.23 454.20&#10;                L 769.472 427.48 L 769.472 427.48&#10;                L 856.47 467.48&#10;                L 961.8399999999999 427.48 L 961.8399999999999 427.48&#10;                L 1031.84 480.48&#10;                L 1154.2079999999999 427.48  V 480.92 H 0 V 427.48 Z" fill="#92a8f0"/></svg>